Coordinates
version=1
nRows=9
nColumns=24
inDegrees=yes

Units are S.I. units (second, meters, Newtons, ...)
Angles are in degrees.

endheader
time	pelvis_tilt	pelvis_list	pelvis_rotation	pelvis_tx	pelvis_ty	pelvis_tz	hip_flexion_r	hip_adduction_r	hip_rotation_r	knee_angle_r	ankle_angle_r	subtalar_angle_r	mtp_angle_r	hip_flexion_l	hip_adduction_l	hip_rotation_l	knee_angle_l	ankle_angle_l	subtalar_angle_l	mtp_angle_l	lumbar_extension	lumbar_bending	lumbar_rotation
      0.60000000	     -0.23707218	      4.76066374	      2.15356300	     -0.70985931	      0.98623935	      0.26895092	     25.40427512	     -3.86767913	     -4.76903996	     -7.80832322	      4.15344066	     -6.10168624	     13.00940485	    -20.38157858	      6.82542785	      7.04408850	     -7.58943836	      8.96843836	    -10.57003309	      9.40679923	     -3.01499164	     -5.36982307	     -5.86578847
      0.60416667	     -0.26524957	      4.65399515	      2.18075389	     -0.70327051	      0.98598427	      0.26941798	     25.38705849	     -3.71220938	     -4.54131198	     -8.40889534	      3.79965023	     -6.43340170	     12.94811414	    -20.28360536	      6.68511787	      6.85259236	     -8.44378702	      8.80341740	    -10.33978244	      9.56305492	     -2.87660671	     -5.20946669	     -5.91763339
      0.60833333	     -0.28410931	      4.54144580	      2.19354324	     -0.69665853	      0.98578029	      0.26991085	     25.35572548	     -3.54495578	     -4.31562090	     -9.00546253	      3.39832413	     -6.76776175	     12.90166684	    -20.16379382	      6.54096212	      6.60286876	     -9.35340208	      8.61042356	    -10.06318812	      9.77621188	     -2.74590124	     -5.04232895	     -5.96691142
      0.61250000	     -0.29869346	      4.42196462	      2.19866261	     -0.69001793	      0.98561347	      0.27042156	     25.31999027	     -3.36960727	     -4.11382746	     -9.61137839	      2.99654014	     -7.06992667	     12.86974507	    -20.02076738	      6.39007732	      6.31206074	    -10.31491981	      8.36548429	     -9.77756654	     10.03163085	     -2.61451447	     -4.86933918	     -5.99878705
      0.61666667	     -0.30413022	      4.30306836	      2.19670349	     -0.68337846	      0.98550103	      0.27094634	     25.27988298	     -3.19461390	     -3.93108513	    -10.23330039	      2.60131659	     -7.34489269	     12.84595100	    -19.85149740	      6.23910433	      5.98446887	    -11.33202139	      8.08570114	     -9.46408782	     10.35873679	     -2.49500630	     -4.69385022	     -6.01527656
      0.62083333	     -0.27003670	      4.17691066	      2.17970713	     -0.67672951	      0.98546593	      0.27148397	     25.20894197	     -3.01435142	     -3.80748210	    -10.88424121	      2.22749389	     -7.51649910	     12.64120487	    -19.70008616	      6.07633465	      5.59954132	    -12.37779364	      7.68382747	     -9.19965184	     16.42395131	     -2.42534156	     -4.50482948	     -6.00922852
      0.62500000	     -0.28634224	      4.06453077	      2.16462391	     -0.67008761	      0.98541329	      0.27203531	     25.19042177	     -2.84734715	     -3.65134179	    -11.53668867	      1.87363398	     -7.75555887	     12.64062958	    -19.46201896	      5.93561998	      5.26392243	    -13.48722262	      7.29137209	     -8.96746451	     16.47864552	     -2.28728815	     -4.34085051	     -6.01725757
      0.62916667	     -0.27451733	      3.94217732	      2.13644475	     -0.66345211	      0.98542800	      0.27261559	     25.14823116	     -2.66977015	     -3.53197644	    -12.20675934	      1.54533828	     -7.93559264	     12.63922256	    -19.21063060	      5.77587487	      4.84028754	    -14.66977014	      6.87954703	     -8.62729098	     16.60101943	     -2.18616315	     -4.16170535	     -5.99380311
      0.63333333	     -0.25863367	      3.82179508	      2.10099685	     -0.65683509	      0.98547681	      0.27320725	     25.10717963	     -2.49570869	     -3.43151587	    -12.89005719	      1.25596714	     -8.07732695	     12.63459345	    -18.92974944	      5.61615713	      4.40224031	    -15.90699311	      6.40179511	     -8.31193488	     16.77959321	     -2.09206409	     -3.98398347	     -5.96356959
